/* XPM */
static char *c12064bb6ef04604bffd42e6bec8329bViMKX4mVP3EkJBT8[] = {
/* columns rows colors chars-per-pixel */
"64 64 113 2 ",
"   c #4F3311",
".  c #523614",
"X  c #563816",
"o  c #5B3A15",
"O  c #573B1A",
"+  c #5C3D1A",
"@  c #613E15",
"#  c #603F19",
"$  c #5F401D",
"%  c #644117",
"&  c #6E4516",
"*  c #63421C",
"=  c #6A461B",
"-  c #6D491E",
";  c #704614",
":  c #744916",
">  c #794C16",
",  c #734B1C",
"<  c #7A4E1B",
"1  c #7C511D",
"2  c #5E4324",
"3  c #644521",
"4  c #684721",
"5  c #664926",
"6  c #6B4A24",
"7  c #674A28",
"8  c #6C4D29",
"9  c #724D23",
"0  c #784F20",
"q  c #714F2A",
"w  c #6D502E",
"e  c #765125",
"r  c #7C5324",
"t  c #74522B",
"y  c #7B562A",
"u  c #7D592C",
"i  c #715431",
"p  c #785731",
"a  c #7C5A33",
"s  c #84541D",
"d  c #88571D",
"f  c #8A581E",
"g  c #905C1E",
"h  c #825623",
"j  c #885720",
"k  c #855925",
"l  c #8B5B24",
"z  c #815728",
"x  c #835B2B",
"c  c #8A5E2B",
"v  c #905E24",
"b  c #835E32",
"n  c #885E30",
"m  c #8E612D",
"M  c #946125",
"N  c #986427",
"B  c #93642D",
"V  c #9A662A",
"C  c #97682F",
"Z  c #9C692E",
"A  c #856035",
"S  c #8C6333",
"D  c #876338",
"F  c #8C663A",
"G  c #8F693C",
"H  c #926632",
"J  c #956935",
"K  c #996B34",
"L  c #9A6B35",
"P  c #9B6D37",
"I  c #9E6F37",
"U  c #946B39",
"Y  c #916A3C",
"T  c #946B3C",
"R  c #946D3E",
"E  c #9A6B39",
"W  c #986C38",
"Q  c #986D3A",
"!  c #9D6F39",
"~  c #986F3F",
"^  c #9D703C",
"/  c #9C713F",
"(  c #A16F36",
")  c #A0703A",
"_  c #A6743B",
"`  c #A0733F",
"'  c #A3743C",
"]  c #A3743D",
"[  c #AA773D",
"{  c #AA793E",
"}  c #956D40",
"|  c #997143",
" . c #9D7242",
".. c #9D7243",
"X. c #9F7441",
"o. c #A27540",
"O. c #A27642",
"+. c #A07546",
"@. c #A37845",
"#. c #A57845",
"$. c #A67A46",
"%. c #AB7A42",
"&. c #AA7B43",
"*. c #AB7C44",
"=. c #A77B48",
"-. c #A97D49",
";. c #AC7E4A",
":. c #B07D43",
">. c #AF8046",
",. c #AF814B",
"<. c #AF814C",
"1. c #B78243",
"2. c #B58349",
/* pixels */
"| a p b Y p y 2 5 7 8 8 2 t x c B x + r r r l h # 1 f f d < > ; ; s s < , , s - , h r + e $ c m m 3 3 ) A S ] %.$.O.T p F | @.+.",
"<.,.$.| ~ w b a t U ] U y x c 5 8 z e c m k r = X d l l g < & > > < < s s , : 1 * + * 9 c 9 9 3 3 3 e _ 8 8 U / $.` / 8 t  .-.-.",
"=.+.F +.$.p a %.D E ) I A u 3 u u z 9 l m k 1 * . d < f f & o < < & s d f d @ @ = * , V B r r z m H x L b y U U / ~ G 7 i @.;.$.",
"G D t a F F D %.u Q I ! t t O 4 9 = * r k r r - o d o s d < o : :   d d d d @ : = r k B c x c B ( L L J P b U S A t A D a R R } ",
"D A t D F F A Q q Q U H t 8 9 4 = + . O = 0 r < o =   < d 1 o @ : . d s < = @ o . X + * 9 e m C J J c x U b Q Q b p O.F F Y b F ",
"F p w  .X.~ U t 5 Q L m u x m B B m h * O * k h = * X = d 1 o @ % . o o   X : l 1 , = X . O 9 e u B J L Q S / ] b D  .G F p 8 p ",
"/ p 2 8 p D D S A t 8 5 x ( J m B Z e * , , k r , o : = @ @ X % h d s 1 = < s v l l l = * 6 e e x x m Q S S Q ! b a U A D a t A ",
"~ F S b t %.:.` ] U t t J H J m B m r - 9 0 h r < X 1 s , @ % , l v M l l h v M l k , 9 l V c e x u c m u 9 8 t D D ~ %.*.2.y / ",
"~ U U S 5 U Q ] ] ] x 5 x J H m m c 4 9 k r r h r o h v M = * r l M v l l l v l k r - l V B C m B 9 $ 3 3 3 8 u b U U D t t 8 F ",
"` U U U 5 Q ! Q U Q A t c m x x c m r h B l k r = X h M l * + h l l k k l k k h k r 0 V B B c c c B m x 3 x Q ] U b t y 8 t y 8 ",
"S 8 y b 5 S S S U x y c B m e * 9 z h c l k 0 - * * l V l , * r v l l r 0 * , 0 = * - B B m x r u m m H A y A Q A u ! ] / Q Q 8 ",
"A 8 b Q x S S u t 3 A I I L m u c c z r l k k r + = r B 9 - * + + * = h = O r h r * * l l c x x x B J B S S t x t 5 A I ! ! S 8 ",
"3 t U S A H J x 5 t H J L L m u B B x e l B l r + * r m 9 * * h k r 9 h O * B C c e 9 r e e $ O 6 m B c u S S I J x u t t A t 2 ",
"A c x x H Q B c 9 t m H S S m 3 u m z e x c k - + 6 * c 9 $ 9 c x e 9 * . h Z Z m h h z x z 9 * u c m x e x c H m x x 8 t A 5 8 ",
"y u x x S H B B u x B H c x H 3 c x 9 $ r B B z 9 e r x 9 4 9 c B m r $ + 9 c B c c z 6 * e 9 3 x H H m 4 6 4 3 3 3 3 3 3 y c x ",
"x x u u m u x x x m u x B c x e u 9 * O x B B m x x x m 4 h 3 x m m e 3 * 4 4 c c c r x e m c u e 3 3 u u * e y c m x e 3 x 5 m ",
"x c e 3 3 4 e 4 x c r B B y 3 e u m x 6 x x c B x c B B 9 m 3 m c c u 4 4 3 + x B B e x r m m x e c u m r 9 e m B B C B c u 8 B ",
"x z 9 * * 9 r * 9 c x x x x 9 J B m x x x m B 9 u x B m 6 B 3 3 3 y 3 O 9 e 4 c B x e x e c m B e c m m x 9 * c m Z B e e c z x ",
"$ 6 e x e O r 4 + * * * e x e L m c x x 5 e y $ S m J c 6 x e 3 u S u u m m u 3 3 4 x 9 x x x c y x x m c 6 * 4 r e B 9 4 x e + ",
"e c B c 9 . r l h * * $ * m * e r e x y 3 x m 3 L S H x x L ] x 9 u x H H J H y t c B 5 y x x x c r e * + + * 9 - * l * O 9 9 * ",
"c B Z B * X h B V m k * + c 6 r u 4 9 5 u J A 3 x H H / _ _ [ ) x 8 6 L H Q y x 5 u c u 3 5 x L B r 3 $ * - r k 9 + * - e r h r ",
"l c B k + = l V V h - * + 6 9 9 e 6 x m / ] _ 3 9 L U [ 1.[ { U u 8 3 S x S 8 t x Q U I x e B B B m * * k l l r 9 + , h h r k r ",
"k k , = X , l V B r * * * * * e e 4 4 B H L Q 8 8 Q x ! :.[ ] Q 8 u 5 S b A t x b Q _ Q t t x c c m * * k V l r h h l r r 1 r 0 ",
"0 r - o . , l N N k = r c m c c y 3 3 t x n b y 8 8 5 A U ] U Q 5 t 3 5 5 5 y 5 y Q ) S 5 9 u x x 9 + r r l l h r r h < - * = h ",
"* h l : o , h k l l 9 r c B B c x 3 3 y S P x 5 8 b b b A u 7 7 2 a a t b t S 8 8 L P S x J L x 4 * + + + * = r < , = o o . X # ",
"= l M 1 @ < r 1 h h + + k B c 4 + 3 u H x A b y D a S p t ~ D a y / / / ` U O.b 8 Q L H S J L c r r c B h * X o X o o @ o X X o ",
"* 1 d d = = o 1 k v , * l k 9 4 3 3 c J Q S t q U >.*.O.A F / T T U R ~ O.~ / b 5 x S S H Q H m 4 r B B c l h , , < = < d = % * ",
"o s d d < o @ l l h h - * 9 + * e 3 c J Q x y 5 b *.$.2.F 7 8 p Y $.X.*.%.O.p t 5 5 5 x A H m m 3 * c m B k , + , h s 1 s 1 < f ",
"X < d f s o o 1 h h h e O 4 $ 3 3 3 H H L S 8 5 t / ~ $.~ p t a b G +.$.$. .8 b U / Q Q x 6 6 9 * * 9 9 9 k = o l d d d d s = < ",
"o % s s 1 o X < h h r = 9 9 r e x y L x 6 3 5 3 a / R Y R $. .a 8 i F i t w 3 u U ] / ! U x x u e 4 $ * - B , - 1 % 1 < < & o @ ",
"@ o o . . . X 1 k r l * 9 e x m c y 5 t 8 8 u 8 y t 8 b G i i i w i $.X.F p p 7 U ` ` Q t A u x x z 9 * * * # * % X o o o o o @ ",
": @ @ , : % o , h 0 l + * * x m c 3 8 A _ ` ] O.O.A b F F 8 w a a i a a A F a 7 Q Q U Q 3 A y x x x 3 c c l k r * % @ o X o @ : ",
"; s s 1 , , h - 9 h r + e $ c m m 3 3 ) A S ] %.$.O.T p F | @.+.| a p b Y p y 2 5 8 8 8 2 t x c B x + r r r l h # 1 f f d < > ; ",
"> > < s s , : 1 * + * 9 c 6 9 * 3 3 e _ 8 8 U / $.` / 8 t  .-.-.<.,.$.| ~ w b a t U ] U y x c 5 8 z e c m k h = X d l l g < & > ",
"< & s d f d @ @ = * , V B e r z m H x L b y U U / ~ F 7 i @.;.$.=.+.F +.$.p a %.D E ) I A u 3 u u z 9 l m k 1 * . d < f f & o < ",
":   d d d d @ : = r k B c z c B ( L L J P b U S A t A D a R R } G D t a F F D %.u Q I ! t t O 4 9 = * r k r r - o d o s d < o : ",
": . d s < = @ o . X + * 9 e m C J J c x U b Q Q b p O.F F T b F D A t D F F A Q q Q U H t 8 9 4 = + . O = 0 r < o =   < d 1 o @ ",
"% . o o   X & l 1 , = X . O 9 e r B J L Q S / ] b D  .F F a 8 p F a w  .X.~ U t 5 Q L A u x m B B m h * X * k h = * X = d 1 o @ ",
"d d s 1 = < s v l l l = * 6 e e x x m Q S S Q ! b a U A D a t A / p 2 8 p D D S A t 8 5 x ( J m B Z e * , , k r , o : = @ @ . * ",
"l v M f l h v M l k , 9 l V c e x u c S u 9 8 t D D ~ %.:.2.y / ~ F S b t %.:.` ] U t t J H J m B m r - 9 < h r < X 1 s , @ * , ",
"l M v l l l v l k r , l V B C m B 9 $ 3 3 3 8 u b U U D t t 8 S ~ U U S 5 U Q ] ] ) x 5 x J H m m c 4 9 k r r h r o h v M = * r ",
"l l k k l k k h k r 0 V B B c c c B m x 3 x Q ] U b t y 8 t y 8 ` U U U 5 Q ! Q U P A t c m x x c m r h B l k r = X h M l * + h ",
"v l l r < * , 0 = * - B B m x r u m m H A y A Q A u ! ] / Q Q 8 S 8 y b 5 S S S H x y c B m e * 9 z h c l k 0 - * * l V l , * r ",
"+ * = h = O r h r * * l l c x x x B J H S S t x t 5 A I ! ! S 8 A 8 b Q x S S u t 3 A I I L m u c c z r l k k r + = r B 9 - * + ",
"k r 9 r O * B C c e 9 r e e $ O 6 m B c u S S I J x u t t A t 2 3 t U S A H Q x 5 t H J L L m u B B x e l B l r + * r m 9 * * h ",
"x e 9 * . h Z Z m h h z x z 9 * x c m x e x c H m x x 8 t A 5 8 A c x x H Q H c 9 t m H S S m 3 u m z e k c k - + 6 * c 9 $ 9 c ",
"B m r $ + 9 c B c c z 6 * e 9 3 x H H m 4 6 4 3 3 3 3 3 3 y c x y u x x S H B B u x B H c x H 3 c x 9 $ r B B z 9 e r x 9 4 9 c ",
"m m e 3 * 4 4 c c c r x e m c u e 3 3 u u * e y c m x e 3 x 5 m x x u u m u x x x m u x B c x e u 9 * O x B B m x x x m 4 h 3 x ",
"c c u 4 4 3 + x B B e x r m m x e c u m r 9 e m B B C B c u 8 B x c e 3 3 4 e 4 x c r B B y 3 e u m x 6 x x c B x c B B 9 m 3 m ",
"3 u 3 O 9 e 4 c B x e x e c m B e c m m x 9 * c m Z B e e c z x x z 9 * * 9 h * 9 c x x x x 9 J m m x x x m B 9 u x B m 6 H 3 3 ",
"u S u u m m u 3 3 4 x 9 x x x c y x x m c 6 * 4 r e B 9 4 c e + $ 6 e x e O h 4 + * * 3 e x e L m c x x 5 e y $ S m J c 6 x e 3 ",
"9 u x H H J H y t c B 5 y x x x c r e * + + * 9 - * l * O 9 9 * e c B c 9 . r l h * * $ * m * e r e x y 3 x m 3 L S H x x L ] x ",
"x 8 6 L H Q y x 5 u c u 3 4 x L B r 3 $ * - r k 9 + * - e r h r c B Z B * X h B V m k * + c 6 r u 4 9 5 u J A 3 x H H / _ _ [ ) ",
"u 8 3 S x S 8 t x Q U I x e B B B m * * k l l r 9 + , h h r k r l c B k + = l V V h - * + 6 9 9 e 6 x m / ] _ 3 9 L U [ 1.[ { U ",
"8 u 5 S b A t x b Q _ Q e t x m c m * * k V l r h h l r r 1 r 0 k k , = X , l V B r * * * * * e e 4 4 B H L Q 8 8 Q x ! :.[ ] Q ",
"5 t 3 5 5 5 y 5 y Q ) S 5 9 u x x 9 + r r l l h r r h < - * = h 9 r - o . , l N N k = r c m c c y 3 * e x n b y 8 8 5 A U ] U Q ",
"2 a a t b t S 8 8 E P S x J L x 4 * + + + * = r < , = o o . X # * h l , o , h k l l 9 r c B B c x 3 3 y S P x 5 8 b b b A u 7 7 ",
"y / / / ` U O.b 8 Q L H S J L c r r c B h * X o X o o @ o X X o = l M 1 @ < r 1 h h + + k B c 4 + 3 u H x A b y D a S p t ~ D a ",
"T U ~ ~ O.~ / b 5 x S S H Q H m 4 r B B c l h , , < = < d = % % % 1 d d = = o 1 k v , * l k 9 4 3 3 c J Q S t q U >.*.O.A F / T ",
"Y $.O.*.%.O.p t 5 5 5 x A H m m 3 * c m B k , + , h s 1 s 1 < d o s d d < o @ l l h h - * 9 + * e 3 c J Q x y 5 b *.$.2.F 7 8 p ",
"b G +.$.@. .8 b U / Q Q x 6 6 9 3 * 9 9 9 k = o l j d d d s & < X < d f s o o 1 h h h e O 4 $ 4 3 3 H H L S 8 5 t / ~ $.~ p t a ",
"8 i F i t w 2 u U ] / ! U x x u e 4 $ * - B , - 1 = 1 1 < & o @ o % s s 1 o X < h r r = 9 9 h e x y L x 6 3 5 3 a / R Y R $. .a ",
"w i $.X.F p p 7 U ` ] Q t A u x x z 9 * * * # * * . o o o o o @ @ o o . . . X < k r l * 9 e x m c y 5 t 8 8 u 8 y t 8 b G i i i ",
"a i a a A F a 7 Q Q U Q 3 A y x x x 3 c c l k r * * @ o X o @ : : @ @ , : % o , h 0 l + * * x m c 3 8 A _ ` ] O.] A b F F 7 w a "
};
