/* XPM */
static char *_68cbc479eb142a5c6c6cc67649ca92eCvWYA3hKjcKPFk2h[] = {
/* columns rows colors chars-per-pixel */
"64 64 2 1 ",
"  c black",
". c white",
/* pixels */
"................................................................",
".                                                              .",
".                                                              .",
".                                                              .",
".                                                              .",
".                                                              .",
".                                                              .",
".                                                              .",
".                                                              .",
".                                                              .",
".                                                              .",
".                                                              .",
".                                                              .",
".                                                              .",
".   ...................                                        .",
".   ...................                                        .",
".            ..                                                .",
".            ..                                                .",
".            ..                                                .",
".            ..                                                .",
".            ..                                                .",
".            ..                                                .",
".            ..                                                .",
".            ..                                                .",
".            ..    .......  ......  ..........                 .",
".            ..    .......  ......  ..........                 .",
".            ..    ..       ..          ..                     .",
".            ..    ..       ..          ..                     .",
".            ..    ..       ..          ..                     .",
".            ..    ....     ......      ..                     .",
".            ..    ....     ......      ..                     .",
".            ..    ..           ..      ..                     .",
".            ..    ..           ..      ..                     .",
".            ..    .......  ......      ..                     .",
".            ..    .......  ......      ..                     .",
".                                                              .",
".                                                              .",
".                                                              .",
".                                                              .",
".                                                              .",
".                                                              .",
".                                                              .",
".                                                              .",
".                                                              .",
".                                                              .",
".                                                              .",
".                                                              .",
".                                                              .",
".                                                              .",
".                                                              .",
".                                                              .",
".                                                              .",
".                                                              .",
".                                                              .",
".                                                              .",
".                                                              .",
".                                                              .",
".                                                              .",
".                                                              .",
".                                                              .",
".                                                              .",
".                                                              .",
".                                                              .",
"................................................................"
};
