/* XPM */
static char *_d56887c4005490ff3d0052468d2f9c3hbdfT1x89vozXSvH[] = {
/* columns rows colors chars-per-pixel */
"64 64 2 1 ",
"  c black",
". c red",
/* pixels */
"................................................................",
".                                                              .",
".                                                              .",
".                                                              .",
".                                                              .",
".                                                              .",
".                                                              .",
".                                                              .",
".                                                              .",
".                                                              .",
".                                                              .",
".                                                              .",
".                                                              .",
".                                                              .",
".   ...................                                        .",
".   ...................                                        .",
".            ..                                                .",
".            ..                                                .",
".            ..                                                .",
".            ..                                                .",
".            ..                                                .",
".            ..                                                .",
".            ..                                                .",
".            ..                                                .",
".            ..    .......  ......  ..........                 .",
".            ..    .......  ......  ..........                 .",
".            ..    ..       ..          ..                     .",
".            ..    ..       ..          ..                     .",
".            ..    ..       ..          ..                     .",
".            ..    ....     ......      ..                     .",
".            ..    ....     ......      ..                     .",
".            ..    ..           ..      ..                     .",
".            ..    ..           ..      ..                     .",
".            ..    .......  ......      ..                     .",
".            ..    .......  ......      ..                     .",
".                                                              .",
".                                                              .",
".                                                              .",
".                                                              .",
".                                                              .",
".                                                              .",
".                                                              .",
".                                                              .",
".                                                              .",
".                                                              .",
".                                                              .",
".                                                              .",
".                                                              .",
".                                                              .",
".                                                              .",
".                                                              .",
".                                                              .",
".                                                              .",
".                                                              .",
".                                                              .",
".                                                              .",
".                                                              .",
".                                                              .",
".                                                              .",
".                                                              .",
".                                                              .",
".                                                              .",
".                                                              .",
"................................................................"
};
